<?xml version="1.0" encoding="utf-8"?>
<!-- Generator: Adobe Illustrator 19.2.0, SVG Export Plug-In . SVG Version: 6.00 Build 0)  -->
<svg version="1.1" id="Layer_1" xmlns="http://www.w3.org/2000/svg" xmlns:xlink="http://www.w3.org/1999/xlink" x="0px" y="0px"
	 viewBox="0 0 100 100" style="enable-background:new 0 0 100 100;" xml:space="preserve">
<style type="text/css">
	.st0{fill:none;}
</style>
<g>
	<path d="M89,89V32.9H74.4V89H89z M79.9,43.1h3.4v5.5h-3.4V43.1z M79.9,58.3h3.4v5.5h-3.4V58.3z M79.9,73.5h3.4V79h-3.4V73.5z"/>
	<rect x="33.5" y="75.3" width="16.7" height="13.7"/>
	<path d="M70.9,89V29.5V13H13v76h17.1V71.7h23.6V89H70.9z M25,64.7h-3.4v-6.5H25V64.7z M25,46.6h-3.4v-6.5H25V46.6z M25,28.7h-3.4
		v-6.5H25V28.7z M37.4,64.7H34v-6.5h3.4V64.7z M37.4,46.6H34v-6.5h3.4V46.6z M37.4,28.7H34v-6.5h3.4V28.7z M49.9,64.7h-3.4v-6.5h3.4
		V64.7z M49.9,46.6h-3.4v-6.5h3.4V46.6z M49.9,28.7h-3.4v-6.5h3.4V28.7z M58.9,22.2h3.4v6.5h-3.4V22.2z M58.9,40.3h3.4v6.5h-3.4
		V40.3z M58.9,58.4h3.4v6.5h-3.4V58.4z"/>
</g>
</svg>
