<?xml version="1.0" encoding="utf-8"?>
<!-- Generator: Adobe Illustrator 19.2.0, SVG Export Plug-In . SVG Version: 6.00 Build 0)  -->
<svg version="1.1" id="Layer_1" xmlns="http://www.w3.org/2000/svg" xmlns:xlink="http://www.w3.org/1999/xlink" x="0px" y="0px"
	 viewBox="0 0 100 100" style="enable-background:new 0 0 100 100;" xml:space="preserve">
<style type="text/css">
	.st0{fill:none;}
</style>
<path d="M89,30.2h-1.7v-8.4c0-2.8-2-6.1-4.5-7.3c0,0-8.9-4.5-30.8-4.5s-30.8,4.5-30.8,4.5c-2.5,1.2-4.5,4.5-4.5,7.3v8.4H15
	c-2.8,0-5,2.3-5,5v5c0,2.8,2.3,5,5,5h1.7v34.4c0,2.2,1.4,4,3.4,4.7v2.8c0,3.7,3,6.7,6.7,6.7s6.7-3,6.7-6.7v-2.5h37v2.5
	c0,3.7,3,6.7,6.7,6.7c3.7,0,6.7-3,6.7-6.7v-2.8c2-0.7,3.4-2.6,3.4-4.7V45.3H89c2.8,0,5-2.3,5-5v-5C94,32.4,91.7,30.2,89,30.2z
	 M35.2,18.4c0-0.9,0.8-1.7,1.7-1.7h30.2c0.9,0,1.7,0.8,1.7,1.7v3.4c0,0.9-0.8,1.7-1.7,1.7H36.9c-0.9,0-1.7-0.8-1.7-1.7V18.4z
	 M27.6,78c-2.3,0-4.2-1.9-4.2-4.2c0-2.3,1.9-4.2,4.2-4.2c2.3,0,4.2,1.9,4.2,4.2C31.8,76.2,30,78,27.6,78z M76.4,78
	c-2.3,0-4.2-1.9-4.2-4.2c0-2.3,1.9-4.2,4.2-4.2s4.2,1.9,4.2,4.2C80.6,76.2,78.7,78,76.4,78z M80.6,58.7c0,0.9-0.8,1.7-1.7,1.7H25.1
	c-0.9,0-1.7-0.8-1.7-1.7V31.8c0-0.9,0.8-1.7,1.7-1.7h53.8c0.9,0,1.7,0.8,1.7,1.7V58.7z"/>
</svg>
