<?xml version="1.0" encoding="utf-8"?>
<!-- Generator: Adobe Illustrator 19.2.0, SVG Export Plug-In . SVG Version: 6.00 Build 0)  -->
<svg version="1.1" id="Layer_1" xmlns="http://www.w3.org/2000/svg" xmlns:xlink="http://www.w3.org/1999/xlink" x="0px" y="0px"
	 viewBox="0 0 100 100" style="enable-background:new 0 0 100 100;" xml:space="preserve">
<style type="text/css">
	.st0{fill:none;}
</style>
<g>
	<path class="st0" d="M77.1,63.1c-2.3,1.4-3,4.4-1.6,6.7C74.1,67.5,74.8,64.5,77.1,63.1z"/>
	<path class="st0" d="M20.6,55.5c0,0.9,0.7,1.5,1.6,1.5C21.3,57,20.6,56.4,20.6,55.5z"/>
	<polygon class="st0" points="75.4,69.8 79.9,77.2 88.8,71.8 88.8,71.8 79.9,77.2 	"/>
	<path class="st0" d="M20.6,47.5c0,0.9,0.7,1.5,1.6,1.5C21.3,49,20.6,48.4,20.6,47.5z"/>
	<path class="st0" d="M47.8,41H19.3C18,41,17,42,17,43.2v23.5c0,1.2,1,2.2,2.3,2.2h28.5c1.2,0,2.3-1,2.3-2.2V43.2
		C50,42,49,41,47.8,41z M44.5,64H31.2c-0.9,0-1.6-0.6-1.6-1.5s0.7-1.5,1.6-1.5h13.3c0.9,0,1.6,0.6,1.6,1.5S45.4,64,44.5,64z
		 M44.5,57H22.2c-0.9,0-1.6-0.6-1.6-1.5s0.7-1.5,1.6-1.5h22.3c0.9,0,1.6,0.6,1.6,1.5S45.4,57,44.5,57z M44.5,49H22.2
		c-0.9,0-1.6-0.6-1.6-1.5s0.7-1.5,1.6-1.5h22.3c0.9,0,1.6,0.6,1.6,1.5S45.4,49,44.5,49z"/>
	<path class="st0" d="M78.5,62.4c-0.3,0.1-0.6,0.2-0.9,0.4l-0.5,0.3c-2.3,1.4-3,4.4-1.6,6.7l4.4,7.3l8.9-5.4l-4.4-7.3
		C83.1,62.4,80.7,61.6,78.5,62.4z"/>
	<path d="M49.5,17.6c1-0.1,1.5-1,1.5-2v-2.7c0-1.1-0.8-1.9-1.9-1.9H17.6c-1.1,0-1.6,0.8-1.6,1.9v2.7c0,1,0.5,1.8,1.5,2
		C13.3,20.4,9,25.6,9,29v52.5c0,5,4.1,8.5,9,8.5h30.6c5,0,9.4-3.5,9.4-8.5V29C58,25.6,53.7,20.4,49.5,17.6z M50,66.8
		c0,1.2-1,2.2-2.3,2.2H19.3C18,69,17,68,17,66.8V43.2c0-1.2,1-2.2,2.3-2.2h28.5c1.2,0,2.3,1,2.3,2.2V66.8z M50,32h-3v2h-3v-2h-2v-3
		h2v-3h3v3h3V32z"/>
	<polygon points="47,26 44,26 44,29 42,29 42,32 44,32 44,34 47,34 47,32 50,32 50,29 47,29 	"/>
	<path d="M44.5,46H22.2c-0.9,0-1.6,0.6-1.6,1.5s0.7,1.5,1.6,1.5h22.3c0.9,0,1.6-0.6,1.6-1.5S45.4,46,44.5,46z"/>
	<path d="M22.2,46c-0.9,0-1.6,0.6-1.6,1.5C20.6,46.6,21.3,46,22.2,46z"/>
	<path d="M44.5,54H22.2c-0.9,0-1.6,0.6-1.6,1.5s0.7,1.5,1.6,1.5h22.3c0.9,0,1.6-0.6,1.6-1.5S45.4,54,44.5,54z"/>
	<path d="M22.2,54c-0.9,0-1.6,0.6-1.6,1.5C20.6,54.6,21.3,54,22.2,54z"/>
	<path d="M44.5,61H31.2c-0.9,0-1.6,0.6-1.6,1.5s0.7,1.5,1.6,1.5h13.3c0.9,0,1.6-0.6,1.6-1.5S45.4,61,44.5,61z"/>
	<path d="M93.7,78.3L85.1,64c-1.6-2.7-5.2-3.6-7.9-1.9l-0.5,0.3c-2.7,1.6-3.6,5.2-1.9,7.9l8.7,14.3c1.6,2.7,5.2,3.6,7.9,1.9l0.5-0.3
		C94.5,84.5,95.4,81,93.7,78.3z M88.8,71.8l-8.9,5.4l-4.4-7.3c-1.4-2.3-0.7-5.3,1.6-6.7l0.5-0.3c0.3-0.2,0.6-0.3,0.9-0.4
		c2.1-0.8,4.6,0.1,5.8,2.1L88.8,71.8L88.8,71.8L88.8,71.8z"/>
	<path d="M84.3,64.5c-1.2-2-3.7-2.8-5.8-2.1C80.7,61.6,83.1,62.4,84.3,64.5l4.4,7.3l0,0L84.3,64.5z"/>
	<path d="M64.3,84.8c2.2,2.7,6.1,3.4,9.2,1.5c3-1.9,4-5.8,2.5-8.9L64.3,84.8z"/>
	<path d="M66,74.5c-3,1.9-4,5.8-2.5,8.9L75.1,76C72.9,73.3,69,72.6,66,74.5z"/>
</g>
</svg>
