<?xml version="1.0" encoding="utf-8"?>
<!-- Generator: Adobe Illustrator 19.2.0, SVG Export Plug-In . SVG Version: 6.00 Build 0)  -->
<svg version="1.1" id="Layer_1" xmlns="http://www.w3.org/2000/svg" xmlns:xlink="http://www.w3.org/1999/xlink" x="0px" y="0px"
	 viewBox="0 0 100 100" style="enable-background:new 0 0 100 100;" xml:space="preserve">
<style type="text/css">
	.st0{fill:none;}
</style>
<g>
	<path d="M45.1,70.6c0,8.7-2.3,18.2-2.4,18.9c-0.3,0.6-0.9,0.6-1.4,0.4c-0.4-0.1-3.6-1.6-4.4-1.7c-0.7-0.3-0.6-1-0.7-1.4l-2-10.4
		h1.7c-1-6.1-3-14.7-3-19.4c0-4.7,1.4-9.4,1.6-10c0.1-0.6,1.1-2.3,2.4-0.9c1.4,1.6,3.6,3,5.4,3.4c0.4,0.1,1,0.3,1,0.3v2.9
		C43.3,57.1,45.1,62,45.1,70.6 M64.1,87.7c0,0-4.6-24.6-4.7-25.6c-0.3-1.2-0.9-3.3-0.9-7.6c0-10.4,5.7-17.7,6-18
		c0.1-0.1,1-1.1,2.1,0.3c1.3,1.9,5,6.7,6.4,8.1c1.3,1.3,4,4,8.3,7.3c-1,1-0.9,2.1-0.9,2.1c0.6,0,1.3,0,2-0.1c0,0-0.1-0.6,0.1-1
		c0.4,0.3,1.9,1.4,3,1.6l-6.1,36.7l1.6,0.4l6.1-37c1.1-0.1,1.9-1,1.9-1.6c0-0.7-0.3-1.3-1.1-1.9c-1-0.7-6.3-4.6-10.4-9.9
		c-2.7-3.7-6-8.9-8.3-17.9c-0.3-1.3,0.6-1.7,0.9-1.7c0.4,0,1,0.1,1.6,0.1c4.9,0,6.4-4,6.4-6c0-2-1.7-6.9-7.2-6.9
		c-4.9,0-6.9,4.7-6.9,6.9c0,1.4-0.4,1.7-1.1,2c-1.7,1-5.9,2.6-11,8.7c-6.6,7.6-7.6,16.4-7.6,16.4S44,43.1,43.5,43
		c-3-0.9-4.9-4.6-4.9-7c0-2.4,2.6-8.4,2.6-8.6c0.1-0.3,0.4-0.7,1.4-0.9c4.7-0.4,5.9-5.4,5.9-6.9c0-1.4-1.3-6.7-7-6.7
		s-6.9,5.3-6.9,6.9c0,1.4,0.3,2,0.3,2.7c0,0.6-0.6,1.1-1.2,1.7c-10.9,9.6-21.2,27.2-21,52h5L16.7,92H26c1.7,0,1.4-1.4,0.6-1.7
		c-1.3-0.6-4-1.6-4.4-1.7c-0.4-0.3-0.9-0.7-0.4-1.9l2.7-10.4H28L33.1,92h21c0.4,0,1-0.3,1.3-0.9c0.1-0.6-0.7-1-1-1.1
		c-0.3,0-2.7-1-3-1.3c-0.1-0.1-0.7-0.4-0.6-1.3c0.1-0.7,1.7-8,1.7-16.4c1,2.6,2.6,6.4,3.6,10.2c1.1,3.7,2.3,8.9,2.4,9.9
		c0.3,1.1,1.1,1,1.1,1h9c0.4,0,1-0.4,1-1c0-0.7-0.7-1-0.7-1s-3.7-1.2-4.3-1.3C64.1,88.6,64.1,88.1,64.1,87.7"/>
</g>
</svg>
