<?xml version="1.0" encoding="utf-8"?>
<!-- Generator: Adobe Illustrator 19.2.0, SVG Export Plug-In . SVG Version: 6.00 Build 0)  -->
<svg version="1.1" id="Layer_1" xmlns="http://www.w3.org/2000/svg" xmlns:xlink="http://www.w3.org/1999/xlink" x="0px" y="0px"
	 viewBox="0 0 141.7 141.7" style="enable-background:new 0 0 141.7 141.7;" xml:space="preserve">
<style type="text/css">
	.st0{fill:none;}
</style>
<g>
	<path class="st0" d="M87.6,47.3c-3.9-4.5-9.8-6.8-17.3-6.8c-7,0-15.2,3.4-18,11.1c-1.8,5,0.3,9.4,2.8,14.3c0.4,0.8,0.8,1.5,1.1,2.3
		c4.3,8.8,0.9,12.9-2.7,17.2c-1.2,1.4-2.4,2.9-3.5,4.6c-1.3,2.1-1.6,3.8-0.9,5.4c1.1,2.4,4.4,4.5,8.6,5.2c1.5,0.3,3.1,0.4,4.6,0.4
		c17.5,0,30.6-19.8,30.6-37.5C92.9,57,91.1,51.4,87.6,47.3z M63.1,93.6c11.8-4.4,21.3-20.1,14.8-32.2c-2.9-5.3-8.5-8.2-13.6-3.8
		c-3.9,3.4-9.9,4.4-6.9-2.9c2.9-7.1,11.3-7.6,17.5-5.4c6.7,2.4,9.7,9.4,10,16.1C85.7,77.7,77.2,94.4,63.1,93.6z M63.5,80.6
		c0.4-0.8,1.1-1.9,1.9-2.6c2.9-4.6,0.2-12.1,3.1-15.5c3.8-4.4,10.4,0.2,9.6,5.3c-0.7,4.2-5.7,6-8.3,8.8C67.7,78.8,67.5,82,63.5,80.6
		z"/>
	<path d="M91.3,44.1c-4.8-5.6-12.1-8.5-21.1-8.5c-10.6,0-19.5,5.6-22.6,14.3c-2.6,7,0.3,12.7,3.1,18.2c0.4,0.7,0.7,1.5,1.1,2.2
		c2.9,6,1.3,7.9-2.1,12c-1.2,1.4-2.6,3.1-3.9,5.1c-2.8,4.3-2.2,7.9-1.3,10c2.1,4.7,7.7,7.3,12.2,8.1c1.8,0.3,3.7,0.5,5.5,0.5
		c20.9,0,35.5-22.4,35.5-42.4C97.8,55.8,95.6,49.1,91.3,44.1z M62.3,101.2c-1.5,0-3.1-0.1-4.6-0.4c-4.2-0.8-7.5-2.8-8.6-5.2
		c-0.7-1.6-0.4-3.4,0.9-5.4c1.1-1.8,2.3-3.2,3.5-4.6c3.6-4.3,7-8.4,2.7-17.2c-0.4-0.8-0.7-1.5-1.1-2.3c-2.5-5-4.7-9.3-2.8-14.3
		c2.8-7.7,11.1-11.1,18-11.1c7.6,0,13.4,2.3,17.3,6.8c3.5,4,5.3,9.7,5.3,16.3C92.9,81.4,79.8,101.2,62.3,101.2z"/>
	<path d="M75,49.3c-6.2-2.2-14.6-1.7-17.5,5.4c-3,7.3,2.9,6.3,6.9,2.9c5.1-4.4,10.7-1.5,13.6,3.8c6.5,12.1-3,27.8-14.8,32.2
		C77.2,94.4,85.7,77.7,85,65.4C84.6,58.7,81.7,51.7,75,49.3z"/>
	<path d="M69.8,76.6c2.6-2.8,7.6-4.5,8.3-8.8c0.8-5.1-5.8-9.7-9.6-5.3c-3,3.4-0.2,10.9-3.1,15.5c-0.8,0.6-1.5,1.7-1.9,2.6
		C67.5,82,67.7,78.8,69.8,76.6z"/>
</g>
</svg>
