<?xml version="1.0" encoding="utf-8"?>
<!-- Generator: Adobe Illustrator 19.2.0, SVG Export Plug-In . SVG Version: 6.00 Build 0)  -->
<svg version="1.1" id="Layer_1" xmlns="http://www.w3.org/2000/svg" xmlns:xlink="http://www.w3.org/1999/xlink" x="0px" y="0px"
	 viewBox="0 0 141.7 141.7" style="enable-background:new 0 0 141.7 141.7;" xml:space="preserve">
<style type="text/css">
	.st0{fill:none;}
</style>
<g>
	<path d="M90.1,70v-4.4h3.3c-0.3-2.6-0.9-5-1.9-7.2h-3.6V54H89c-1.7-2.4-3.9-4.6-6.4-6.2v1.8h-4.4v-4.2c-2.8-1.2-5.9-1.8-9.2-1.8
		C58,43.7,47.8,52,45.6,61.2c-0.5,2-1,7.4-1,7.4l-5.1,12.9c-0.1,0.2-0.1,0.5-0.1,0.8c0,1.1,0.9,2,2,2h3.3v6.8c0,5.3,4.3,9.6,9.6,9.6
		h3.8v7.5h26.1V87.3c5.2-4.1,8.7-10.3,9.3-17.3L90.1,70L90.1,70z M70.4,49.6h4.4V54h-4.4V49.6z M68.3,67.8h-4.4v-4.4h4.4V67.8z
		 M68.3,59.1h-4.4v-4.4h4.4V59.1z M72.6,63.4h-4.4v-4.4h4.4V63.4z M81.4,74.4H77V70h-4.4v-4.4h0v-4.4H77v4.4h0V70h4.4V74.4z
		 M81.4,59.1H77v-4.4h4.4V59.1z M87.9,62.5h-4.4v-4.4h4.4V62.5z"/>
	<rect x="93.5" y="52.5" width="4.4" height="4.4"/>
	<rect x="97.9" y="65.6" width="4.4" height="4.4"/>
	<rect x="89.1" y="45.2" width="4.4" height="4.4"/>
	<rect x="93.5" y="40.8" width="4.4" height="4.4"/>
	<rect x="83.5" y="33.7" width="4.4" height="4.4"/>
</g>
</svg>
