<?xml version="1.0" encoding="utf-8"?>
<!-- Generator: Adobe Illustrator 19.2.0, SVG Export Plug-In . SVG Version: 6.00 Build 0)  -->
<svg version="1.1" id="Layer_1" xmlns="http://www.w3.org/2000/svg" xmlns:xlink="http://www.w3.org/1999/xlink" x="0px" y="0px"
	 viewBox="0 0 141.7 141.7" style="enable-background:new 0 0 141.7 141.7;" xml:space="preserve">
<style type="text/css">
	.st0{fill:none;}
</style>
<g transform="matrix( 1, 0, 0, 1, 0,0) ">
	<g>
		<g id="a">
			<path d="M78.4,64.1l-8.5-4.1l-9.3,18.8l8.5,4.2L78.4,64.1 M60.4,87.1c0,0.3,0.1,0.5,0.2,0.7c0.2,0.2,0.3,0.4,0.5,0.5
				c0.2,0.1,0.4,0.1,0.7,0.1c0.2,0,0.4-0.1,0.6-0.2l0.1-0.1l0,0l6-4.1L60.3,80L60.4,87.1 M80.7,55.9c-0.2-0.3-0.5-0.5-0.8-0.6
				l-3.2-1.6c-0.4-0.2-0.8-0.3-1.2-0.4c-0.4,0-0.8,0-1.2,0.2c-0.4,0.1-0.8,0.3-1.1,0.6c-0.3,0.3-0.6,0.6-0.8,1l-1.8,3.7L79,63
				l2.1-4.2c0.2-0.3,0.2-0.7,0.3-1c0-0.4,0-0.7-0.1-1C81.1,56.5,80.9,56.2,80.7,55.9z"/>
		</g>
	</g>
</g>
</svg>
