<?xml version="1.0" encoding="utf-8"?>
<!-- Generator: Adobe Illustrator 19.2.0, SVG Export Plug-In . SVG Version: 6.00 Build 0)  -->
<svg version="1.1" id="Layer_1" xmlns="http://www.w3.org/2000/svg" xmlns:xlink="http://www.w3.org/1999/xlink" x="0px" y="0px"
	 viewBox="0 0 141.7 141.7" style="enable-background:new 0 0 141.7 141.7;" xml:space="preserve">
<style type="text/css">
	.st0{fill:none;}
</style>
<g>
	<rect x="73.9" y="65.1" width="12.8" height="3"/>
	<rect x="73.9" y="72.7" width="12.8" height="3"/>
	<path d="M89.1,52.6H52.6c-3.7,0-6.4,3-6.4,7v22.8c0,3.7,2.7,6.7,6.4,6.7h36.5c3.7,0,6.4-3,6.4-7V59.6
		C95.5,55.6,92.8,52.6,89.1,52.6z M90.9,82.4c0,1.2-0.9,2.4-1.8,2.4H76.6V84c0-0.6-0.3-1.2-0.9-1.5l-8.2-4.9
		C66.6,77,66,76,66.3,75.1l1.8-4.3c0,0,0.9-0.9,1.2-1.5S69,68.4,69,68.1c-0.3-0.6,0-3,0-3c0-1.5-0.9-3.7-2.4-4.3l-0.9-0.3
		c-1.5-0.6-3.4-0.6-4.9,0l-0.6,0.3c-1.5,0.6-2.1,2.7-2.1,4.3c0,0,0.3,2.4,0,3c0,0.3-0.6,0.6-0.3,1.2c0,0.6,0.9,1.5,0.9,1.5l1.8,4
		c0.3,1.2-0.3,2.1-1.2,2.7l-8.5,4.3V59.6c0-1.2,0.9-2.4,1.8-2.4h36.5c0.9,0,1.8,0.9,1.8,2.4V82.4z"/>
</g>
</svg>
