<?xml version="1.0" encoding="utf-8"?>
<!-- Generator: Adobe Illustrator 19.2.0, SVG Export Plug-In . SVG Version: 6.00 Build 0)  -->
<svg version="1.1" id="Layer_1" xmlns="http://www.w3.org/2000/svg" xmlns:xlink="http://www.w3.org/1999/xlink" x="0px" y="0px"
	 viewBox="0 0 141.7 141.7" style="enable-background:new 0 0 141.7 141.7;" xml:space="preserve">
<style type="text/css">
	.st0{fill:none;}
</style>
<g>
	<path d="M91.9,65h-7.4l-7.2-7.2c0.2-0.4,0.4-0.9,0.4-1.5c0-1.7-1.4-3.1-3.1-3.1c-1.7,0-3.1,1.4-3.1,3.1c0,1.7,1.4,3.1,3.1,3.1
		c0.5,0,1-0.1,1.5-0.4L82,65H59.6l5.9-5.9c0.4,0.2,0.9,0.4,1.5,0.4c1.7,0,3.1-1.4,3.1-3.1c0-1.7-1.4-3.1-3.1-3.1
		c-1.7,0-3.1,1.4-3.1,3.1c0,0.5,0.1,1,0.4,1.5L57.2,65h-7.4c-0.5,0-0.9,0.4-0.9,0.9v3.9c0,0.5,0.4,0.9,0.9,0.9h42.1
		c0.5,0,0.9-0.4,0.9-0.9v-3.9C92.8,65.3,92.4,65,91.9,65z"/>
	<path d="M89.8,73.2c-0.2-0.2-0.4-0.3-0.7-0.3h-7.7v10.4c0,0.5-0.4,0.9-0.9,0.9s-0.9-0.4-0.9-0.9V72.8h-3.1v10.4
		c0,0.5-0.4,0.9-0.9,0.9s-0.9-0.4-0.9-0.9V72.8h-3.1v10.4c0,0.5-0.4,0.9-0.9,0.9c-0.5,0-0.9-0.4-0.9-0.9V72.8h-3.1v10.4
		c0,0.5-0.4,0.9-0.9,0.9s-0.9-0.4-0.9-0.9V72.8h-3.1v10.4c0,0.5-0.4,0.9-0.9,0.9c-0.5,0-0.9-0.4-0.9-0.9V72.8h-7.7
		c-0.3,0-0.5,0.1-0.7,0.3c-0.2,0.2-0.2,0.5-0.1,0.8l4,13.9c0.1,0.4,0.4,0.6,0.8,0.6h28.5c0.4,0,0.7-0.3,0.8-0.6l4-13.9
		C90,73.7,89.9,73.4,89.8,73.2z"/>
</g>
</svg>
