<?xml version="1.0" encoding="utf-8"?>
<!-- Generator: Adobe Illustrator 19.2.0, SVG Export Plug-In . SVG Version: 6.00 Build 0)  -->
<svg version="1.1" id="Layer_1" xmlns="http://www.w3.org/2000/svg" xmlns:xlink="http://www.w3.org/1999/xlink" x="0px" y="0px"
	 viewBox="0 0 141.7 141.7" style="enable-background:new 0 0 141.7 141.7;" xml:space="preserve">
<style type="text/css">
	.st0{fill:none;}
</style>
<path d="M111.6,70.5c0,0-12.9-22.9-41-22.9c-0.5,0-1,0-1.6,0l-2.5-11.5l-3.8,0.8l2.3,11c-24.3,2.7-35,22.5-35,22.5s2.2,4.4,7,9.4
	l-2-9.2c0-0.1-0.1-0.1-0.1-0.1s0.8-1.3,2.4-3.2l3.4,16.2c1.4,1.2,3,2.4,4.7,3.5l-4.9-23.1c1-0.9,2.1-1.9,3.3-2.8l6.1,28.5
	c1.4,0.7,2.8,1.3,4.3,1.9l-7-32.8c1.1-0.7,2.4-1.4,3.7-2l7.7,36.2c1.3,0.3,2.7,0.6,4.1,0.8L60,79.8c1.3,1.6,3,2.9,4.9,3.8L67.1,94
	c0.9,0.1,1.9,0.1,2.8,0.1c0.4,0,0.8,0,1.1,0l-2-9.3c0.6,0.1,1.2,0.1,1.8,0.1c0.7,0,1.5-0.1,2.2-0.2l4.4,20.9l3.8-0.8l-2.5-11.5
	C100.6,89.1,111.6,70.5,111.6,70.5z M57.3,67.1L54.7,55c1.2-0.5,2.5-0.9,3.8-1.3l1.7,7.9C58.9,63.2,57.9,65.1,57.3,67.1z M63.6,58.8
	l-1.3-6c1.2-0.2,2.5-0.4,3.8-0.5l1.1,5C65.9,57.7,64.7,58.2,63.6,58.8z M71,56.8l-1-4.7c0.2,0,0.4,0,0.6,0c0.9,0,1.8,0,2.7,0.1
	c9,1.4,15.9,9.2,15.9,18.7c0,7.8-4.8,14.5-11.5,17.4l-1-4.6c4.8-2.2,8.2-7.1,8.2-12.8C84.9,63.2,78.7,56.9,71,56.8z M87.5,86
	c3.6-4,5.7-9.3,5.7-15.1c0-6.1-2.4-11.6-6.2-15.7c13.3,5.2,19.6,15.4,19.6,15.4S100.2,80.5,87.5,86z"/>
</svg>
