<?xml version="1.0" encoding="utf-8"?>
<!-- Generator: Adobe Illustrator 19.2.0, SVG Export Plug-In . SVG Version: 6.00 Build 0)  -->
<svg version="1.1" id="Layer_1" xmlns="http://www.w3.org/2000/svg" xmlns:xlink="http://www.w3.org/1999/xlink" x="0px" y="0px"
	 viewBox="0 0 141.7 141.7" style="enable-background:new 0 0 141.7 141.7;" xml:space="preserve">
<style type="text/css">
	.st0{fill:none;}
</style>
<g>
	<path d="M86.6,57.3c0-5.2-6-17.9-8-19.2c-1.9-1.2-7-1-7.7-0.9c-0.7,0-5.8-0.3-7.7,0.9c-2.1,1.3-8,14-8,19.2c0,3.4,1.4,7.2,4.5,11.6
		c1.3-2.1,3.1-5.1,4-6.4c1.1-1.6,3.9-5.3,5.6-7.6c-1.1-1.6-2.1-3-2.6-3.8c-2.2-3.4-2.6-5.6-2.6-5.6h6.7h0.2h6.7c0,0-0.4,2.2-2.6,5.6
		C72.8,54.5,64.4,66,63.5,67.9C62.5,69.8,50,89.5,48.9,94l10.4,10.6c0,0,8.8-20.5,16.4-28.3C83.4,68.5,86.6,62.5,86.6,57.3z"/>
	<path d="M81.8,74c-1.7,1.8-4,4.1-5,5.3c-1,1.2-2.8,3.9-4.3,6.2c5.3,8.8,9.7,19.1,9.7,19.1L92.7,94C92,91,85.9,80.8,81.8,74z"/>
</g>
</svg>
