<?xml version="1.0" encoding="utf-8"?>
<!-- Generator: Adobe Illustrator 19.2.0, SVG Export Plug-In . SVG Version: 6.00 Build 0)  -->
<svg version="1.1" id="Layer_1" xmlns="http://www.w3.org/2000/svg" xmlns:xlink="http://www.w3.org/1999/xlink" x="0px" y="0px"
	 viewBox="0 0 141.7 141.7" style="enable-background:new 0 0 141.7 141.7;" xml:space="preserve">
<style type="text/css">
	.st0{fill:none;}
</style>
<g>
	<circle cx="56.1" cy="42.9" r="6.8"/>
	<circle cx="85.6" cy="39.8" r="6.8"/>
	<path d="M90.1,48.9h-9.1c-3.4,0-6.3,2.3-7.2,5.3l-3.2,11.5L67.8,57c-1-3-3.8-5.1-7.1-5.1h-9.1c-4.2,0-7.6,3.4-7.6,7.6v15.9
		c0,3.1,1.9,5.8,4.5,6.9v20.3c0,3.3,2.7,6.1,6.1,6.1h3c3.3,0,6.1-2.7,6.1-6.1V67.1L67.2,79c0.5,1.6,1.7,2.6,3.6,2.6
		c1.9,0,3.1-1,3.5-2.6L78,65.6v37.1c0,3.3,2.7,6.1,6.1,6.1h3c3.3,0,6.1-2.7,6.1-6.1V80.8c2.7-1.2,4.5-3.8,4.5-6.9V56.5
		C97.7,52.3,94.3,48.9,90.1,48.9z"/>
</g>
</svg>
