<?xml version="1.0" encoding="utf-8"?>
<!-- Generator: Adobe Illustrator 19.2.0, SVG Export Plug-In . SVG Version: 6.00 Build 0)  -->
<svg version="1.1" id="Layer_1" xmlns="http://www.w3.org/2000/svg" xmlns:xlink="http://www.w3.org/1999/xlink" x="0px" y="0px"
	 viewBox="0 0 141.7 141.7" style="enable-background:new 0 0 141.7 141.7;" xml:space="preserve">
<style type="text/css">
	.st0{fill:none;}
</style>
<path d="M70.8,68.9c4.7,0,8.5-3.8,8.5-8.5c0-6-8.5-12.9-8.5-12.9s-8.5,7-8.5,12.9C62.4,65.1,66.2,68.9,70.8,68.9z M86.6,34.8H55.1
	c-4.7,0-8.6,3.8-8.6,8.6V83c0,4.7,3.8,8.6,8.6,8.6h7.5v15.3h16.6V91.6h7.5c4.7,0,8.6-3.8,8.6-8.6V43.4
	C95.2,38.7,91.3,34.8,86.6,34.8z M61.4,79.4h-6.5V77h6.5V79.4z M76.7,104.4H65v-9.7h11.6L76.7,104.4L76.7,104.4z M76.7,92.2H65v-6.4
	h11.6L76.7,92.2L76.7,92.2z M67.6,79.4V77h6.5v2.5H67.6z M86.9,79.4h-6.5V77h6.5V79.4z M86.9,73h-32V43.4h32L86.9,73L86.9,73z
	 M70.8,101.5c1.1,0,2-0.9,2-2s-0.9-2-2-2c-1.1,0-2,0.9-2,2S69.7,101.5,70.8,101.5z"/>
</svg>
