<?xml version="1.0" encoding="utf-8"?>
<!-- Generator: Adobe Illustrator 19.2.0, SVG Export Plug-In . SVG Version: 6.00 Build 0)  -->
<svg version="1.1" id="Layer_1" xmlns="http://www.w3.org/2000/svg" xmlns:xlink="http://www.w3.org/1999/xlink" x="0px" y="0px"
	 viewBox="0 0 141.7 141.7" style="enable-background:new 0 0 141.7 141.7;" xml:space="preserve">
<style type="text/css">
	.st0{fill:none;}
</style>
<g>
	<path d="M51.8,57.4H30.1c-2.4,0-4.3,1.9-4.3,4.3v22.4H32v23.2h18V84.1h6.1V61.7C56.1,59.3,54.1,57.4,51.8,57.4"/>
	<path d="M91.1,60.7l-5.5,23.4h3.3h2.8v23.2h9h9V84.1h2.8h3.3l-5.5-23.4c-0.4-1.9-2.1-3.3-4.2-3.3h-5.5h-5.5
		C93.2,57.4,91.5,58.8,91.1,60.7"/>
	<rect x="68.9" y="34.4" width="3.7" height="72.9"/>
	<path d="M40.9,55.6c5.9,0,10.6-4.7,10.6-10.6s-4.7-10.6-10.6-10.6S30.3,39.2,30.3,45C30.4,50.9,35.1,55.6,40.9,55.6"/>
	<path d="M111.3,45c0-5.9-4.7-10.6-10.6-10.6S90.1,39.2,90.1,45s4.7,10.6,10.6,10.6S111.3,50.9,111.3,45"/>
</g>
</svg>
