<?xml version="1.0" encoding="utf-8"?>
<!-- Generator: Adobe Illustrator 19.2.0, SVG Export Plug-In . SVG Version: 6.00 Build 0)  -->
<svg version="1.1" id="Layer_1" xmlns="http://www.w3.org/2000/svg" xmlns:xlink="http://www.w3.org/1999/xlink" x="0px" y="0px"
	 viewBox="0 0 141.7 141.7" style="enable-background:new 0 0 141.7 141.7;" xml:space="preserve">
<style type="text/css">
	.st0{fill:none;}
</style>
<g>
	<g>
		<path d="M76.9,84.4c0.1,0.7,0.1,1.4,0.1,2.1c0,7.8-6.4,14.2-14.2,14.2c-7.8,0-14.2-6.4-14.2-14.2c0-5,2.6-9.4,6.5-12v-6.9
			c-7.4,3-12.6,10.3-12.6,18.8c0,11.2,9.1,20.3,20.3,20.3c9.4,0,17.3-6.3,19.6-15L76.9,84.4z"/>
		<path d="M88.6,94.7L76.8,78.8l-15.1,0c-1.7,0-3-1.4-3-3V54.1c0-1.7,1.4-3.1,3-3.1s3,1.4,3,3.1v18.6l13.6,0c1,0,1.9,0.5,2.4,1.2
			l11,14.8l2.6-1.8v0c1.4-1,3.3-0.6,4.2,0.7c1,1.4,0.6,3.3-0.7,4.2l-5,3.5c-0.5,0.4-1.1,0.6-1.8,0.6C90.2,96,89.2,95.5,88.6,94.7"/>
		<path d="M68.2,41c0,3.4-2.7,6.1-6.1,6.1c-3.4,0-6.1-2.7-6.1-6.1c0-3.4,2.7-6.1,6.1-6.1C65.5,34.9,68.2,37.6,68.2,41"/>
		<path d="M71.8,69c-0.8,0-1.5-0.4-2-1L60,55.4c-0.9-1.1-0.7-2.7,0.5-3.6c1.1-0.9,2.7-0.7,3.6,0.5l9,11.7h7.1c1.4,0,2.5,1.1,2.5,2.5
			c0,1.4-1.1,2.5-2.5,2.5L71.8,69L71.8,69z"/>
	</g>
</g>
</svg>
