<?xml version="1.0" encoding="utf-8"?>
<!-- Generator: Adobe Illustrator 19.2.0, SVG Export Plug-In . SVG Version: 6.00 Build 0)  -->
<svg version="1.1" id="Layer_1" xmlns="http://www.w3.org/2000/svg" xmlns:xlink="http://www.w3.org/1999/xlink" x="0px" y="0px"
	 viewBox="0 0 64 64" style="enable-background:new 0 0 64 64;" xml:space="preserve">
<style type="text/css">
	.st0{fill:none;enable-background:new    ;}
	.st1{fill:none;}
	.st2{fill:#FFFFFF;}
</style>
<g id="Ellipse_1_copy_3">
	<path d="M32,61C16,61,3,48,3,32C3,16,16,3,32,3c16,0,29,13,29,29C61,48,48,61,32,61z M32,5C17.1,5,5,17.1,5,32s12.1,27,27,27
		s27-12.1,27-27S46.9,5,32,5z"/>
</g>
<path d="M21.4,35.3c1.9,0,3.4-1.5,3.4-3.4s-1.5-3.4-3.4-3.4c-1.9,0-3.4,1.5-3.4,3.4S19.5,35.3,21.4,35.3z M21.4,29.6
	c1.2,0,2.2,1,2.2,2.2c0,1.2-1,2.2-2.2,2.2c-1.2,0-2.2-1-2.2-2.2C19.2,30.6,20.2,29.6,21.4,29.6z"/>
<path d="M33.6,15.6c0.2-0.1,0.3-0.6,0.1-1c-0.2-0.5-0.6-0.7-0.8-0.7c-0.2,0.1-0.2,0.5,0,1C33.1,15.4,33.4,15.7,33.6,15.6z"/>
<path d="M39.6,14.9c0.2-0.5,0.2-0.9,0-1c-0.2-0.1-0.6,0.2-0.8,0.7c-0.2,0.5-0.1,1,0.1,1C39.1,15.7,39.4,15.4,39.6,14.9z"/>
<path d="M32,7C18.2,7,7,18.2,7,32s11.2,25,25,25s25-11.2,25-25S45.8,7,32,7z M38.4,14.5c0.3-0.9,1.3-1.3,2.2-0.9
	c0.5,0.2,0.8,0.6,1,1.1l0.8,0.3c0.4,0.2,0.6,0.6,0.4,1l-0.2,0.6c-0.2,0.4-0.6,0.6-1,0.4l-0.9-0.4c-0.4,0.2-0.9,0.2-1.4,0
	C38.5,16.4,38.1,15.4,38.4,14.5z M30.1,15l0.8-0.3c0.1-0.5,0.5-0.9,1-1.1c0.9-0.3,1.8,0.1,2.2,0.9c0.3,0.9-0.1,1.8-0.9,2.2
	c-0.5,0.2-0.9,0.2-1.4,0L30.9,17c-0.4,0.2-0.9,0-1-0.4L29.6,16C29.5,15.6,29.7,15.2,30.1,15z M29.1,16c-0.1,0.2-0.1,0.3,0,0.5
	l0.2,0.5c0.1,0.2,0.2,0.3,0.4,0.4c-2.3,1.6-2.5,3.1-2.1,4.7c0.1,0.3,0.7,2.6,0.8,3.2c0,0,0,0.1,0.1,0.1c-0.2,0.2-0.5,0.3-0.7,0.3
	c-0.2,0.1-0.5,0.1-0.7,0.1c0,0,0-0.1,0-0.1c-0.5-1.7-1-4.2-1-4.9C26,17.7,28.7,16.2,29.1,16z M21.4,27.9c2.2,0,4,1.8,4,4
	c0,2.1-1.6,3.8-3.6,4l-0.1,0.6c-0.1,0.3-0.4,0.5-0.7,0.4l-1.5-0.3c-0.3-0.1-0.5-0.4-0.4-0.7l0.1-0.6c-1.1-0.7-1.9-1.9-1.9-3.4
	C17.4,29.7,19.2,27.9,21.4,27.9z M37.4,34.6L37.4,34.6c0.2,1.1,0.4,1.9,0.5,2.5l0.8,3.3c1.4,5.4-4.6,10.1-10.1,10.1
	c-5.6,0-11.3-4.7-10.1-10.1l0.7-3.5c0.6,0.2,1.2,0.4,1.8,0.4l-0.7,3.1c-0.9,4.4,3.7,8.2,8.2,8.2s9.3-3.8,8.2-8.2l-1.2-4.5
	c-0.2-0.4-0.3-0.9-0.4-1.3c-5.1-1-7.1-4.9-8.3-8.2c0.2,0,0.6,0,0.9-0.1c0.4-0.1,0.8-0.3,1-0.5c0.2,0.7,0.4,1.4,0.6,1.8
	c2.3,5,6.8,5.1,6.8,5.1s4.5-0.1,6.8-5.1c0.2-0.4,0.4-1.1,0.6-1.8c0.2,0.2,0.6,0.5,1.1,0.6c0.3,0.1,0.6,0.1,0.9,0.1
	C44.4,29.7,42.4,33.6,37.4,34.6z M45.5,25.6c0,0,0,0.1,0,0.1c-0.2,0-0.5,0-0.7-0.1c-0.2-0.1-0.6-0.2-0.8-0.4c0,0,0.1-0.1,0.1-0.1
	c0.2-0.6,0.8-2.9,0.8-3.2c0.4-1.6,0.2-3.2-2.1-4.7c0.2-0.1,0.3-0.2,0.4-0.4l0.2-0.5c0.1-0.1,0.1-0.3,0-0.4c0.5,0.3,3,1.8,3,4.7
	C46.6,21.4,46.1,24,45.5,25.6z"/>
</svg>
