<?xml version="1.0" encoding="utf-8"?>
<!-- Generator: Adobe Illustrator 19.2.0, SVG Export Plug-In . SVG Version: 6.00 Build 0)  -->
<svg version="1.1" id="Layer_1" xmlns="http://www.w3.org/2000/svg" xmlns:xlink="http://www.w3.org/1999/xlink" x="0px" y="0px"
	 viewBox="0 0 64 64" style="enable-background:new 0 0 64 64;" xml:space="preserve">
<style type="text/css">
	.st0{fill:none;enable-background:new    ;}
	.st1{fill:none;}
	.st2{fill:#FFFFFF;}
</style>
<g id="Ellipse_1_copy_3_3_">
	<path d="M32,61C16,61,3,48,3,32C3,16,16,3,32,3c16,0,29,13,29,29C61,48,48,61,32,61z M32,5C17.1,5,5,17.1,5,32s12.1,27,27,27
		s27-12.1,27-27S46.9,5,32,5z"/>
</g>
<g>
	<rect x="24.1" y="30" width="15.8" height="1.4"/>
	<rect x="24.1" y="25" width="15.8" height="1.4"/>
	<rect x="24.1" y="35" width="15.8" height="1.4"/>
	<g>
		<polygon class="st1" points="19.5,48.3 35.6,48.3 35.6,39.3 44.5,39.3 44.5,16 19.5,16 		"/>
		<path d="M32,7C18.2,7,7,18.2,7,32s11.2,25,25,25s25-11.2,25-25S45.8,7,32,7z M36.7,48.3v-7.9h7.9L36.7,48.3z M44.5,39.3h-9v9H19.5
			V16h25.1V39.3z"/>
	</g>
</g>
</svg>
