<?xml version="1.0" encoding="utf-8"?>
<!-- Generator: Adobe Illustrator 19.2.0, SVG Export Plug-In . SVG Version: 6.00 Build 0)  -->
<svg version="1.1" id="Layer_1" xmlns="http://www.w3.org/2000/svg" xmlns:xlink="http://www.w3.org/1999/xlink" x="0px" y="0px"
	 viewBox="0 0 141.7 141.7" style="enable-background:new 0 0 141.7 141.7;" xml:space="preserve">
<style type="text/css">
	.st0{fill:none;}
</style>
<g>
	<path d="M70.8,52.1C60.5,52.1,52,60.5,52,70.9s8.4,18.8,18.8,18.8c10.4,0,18.8-8.4,18.8-18.8S81.2,52.1,70.8,52.1z M70.6,80.8
		c0.1,0.1,0.2,0.2,0.3,0.2c0.2,0,0.4-0.1,0.6-0.3c0.5-0.4,1.2-1.2,1.9-2.4l0.6,0.4c-1.8,3.1-3.7,4.6-5.7,4.6c-0.8,0-1.4-0.2-1.8-0.6
		s-0.7-1-0.7-1.6c0-0.4,0.1-1,0.3-1.7l2.4-8.4c0.2-0.8,0.4-1.4,0.4-1.8c0-0.3-0.1-0.5-0.3-0.7s-0.5-0.3-0.9-0.3c-0.2,0-0.4,0-0.6,0
		l0.2-0.7l6-1l1.1,0L70.7,79c-0.2,0.7-0.3,1.2-0.3,1.4C70.4,80.6,70.5,80.7,70.6,80.8z M75.1,62.8c-0.5,0.5-1.1,0.8-1.8,0.8
		c-0.7,0-1.3-0.3-1.8-0.8c-0.5-0.5-0.8-1.1-0.8-1.8c0-0.7,0.2-1.3,0.7-1.8c0.5-0.5,1.1-0.8,1.8-0.8c0.7,0,1.3,0.3,1.8,0.8
		c0.5,0.5,0.7,1.1,0.7,1.8C75.8,61.7,75.6,62.3,75.1,62.8z"/>
</g>
</svg>
