<svg id="Layer_1" data-name="Layer 1" xmlns="http://www.w3.org/2000/svg" viewBox="0 0 100 100"><defs><style>.cls-1{fill:none;}</style></defs><title>wizard_icon</title><path class="cls-1" d="M26.93,57.14a7.4,7.4,0,1,0-7.4-7.4A7.4,7.4,0,0,0,26.93,57.14Zm0-12.26a4.86,4.86,0,1,1-4.86,4.86A4.86,4.86,0,0,1,26.93,44.88Z"/><path class="cls-1" d="M66.51,12.8c0.41-1,.38-2-0.06-2.17s-1.38.4-1.79,1.42-0.15,2.08.3,2.27S66.1,13.82,66.51,12.8Z"/><path class="cls-1" d="M53.52,14.32c0.45-.18.71-1.25,0.3-2.27s-1.35-1.6-1.79-1.42S51.56,11.79,52,12.8,53.08,14.5,53.52,14.32Z"/><path d="M22.3,57.08L22,58.3a1.19,1.19,0,0,0,.88,1.42l3.21,0.76a1.19,1.19,0,0,0,1.42-.88l0.29-1.23A8.67,8.67,0,1,0,22.3,57.08Zm4.63-14.73a7.4,7.4,0,1,1-7.4,7.4A7.4,7.4,0,0,1,26.93,42.35Z"/><path d="M75.44,36.39a36.86,36.86,0,0,1-1.35,3.87c-5,10.83-14.74,11.08-14.74,11.08s-9.76-.24-14.74-11.07a36.69,36.69,0,0,1-1.33-3.83,5.25,5.25,0,0,1-2.21,1.13,6.8,6.8,0,0,1-2,.25C41.6,45,46,53.49,57.08,55.68A18.33,18.33,0,0,0,58,58.41l2.52,9.86c2.44,9.54-8.06,17.9-17.9,17.9s-20-8.28-17.9-17.9l1.44-6.7a9.85,9.85,0,0,1-3.92-.88l-1.63,7.6c-2.54,11.84,9.91,22,22,22s25-10.28,22-22L62.8,61.15c-0.2-1.37-.56-3.17-1.12-5.47h0c11-2.21,15.37-10.58,17.95-17.77a7.33,7.33,0,0,1-1.89-.25A5.09,5.09,0,0,1,75.44,36.39Z"/><path d="M78.36,28.27c-0.14.6-1.46,5.73-1.82,7a0.52,0.52,0,0,1-.14.21,3.48,3.48,0,0,0,1.66.84,4.74,4.74,0,0,0,1.45.13,0.46,0.46,0,0,1,0-.31,57,57,0,0,0,2.26-10.72c0-6.4-5.38-9.65-6.58-10.29a1.5,1.5,0,0,1-.06,1l-0.42,1a1.5,1.5,0,0,1-.93.86C78.83,21.38,79.22,24.68,78.36,28.27Z"/><path d="M39.23,36.37a4.84,4.84,0,0,0,1.56-.13,3.87,3.87,0,0,0,1.56-.74,0.58,0.58,0,0,1-.17-0.24c-0.37-1.27-1.68-6.4-1.82-7-0.85-3.59-.47-6.89,4.59-10.26a1.5,1.5,0,0,1-.84-0.83l-0.42-1a1.5,1.5,0,0,1,0-1.06C42.74,15.55,37,18.8,37,25.42a56.9,56.9,0,0,0,2.26,10.72A0.4,0.4,0,0,1,39.23,36.37Z"/><circle cx="26.93" cy="49.75" r="4.86"/><path d="M45.36,16.46a1.74,1.74,0,0,0,2.26,1l1.89-.77a3.66,3.66,0,1,0-1.93-4.36L45.83,13a1.74,1.74,0,0,0-1,2.26ZM52,10.63c0.45-.18,1.38.4,1.79,1.42s0.15,2.08-.3,2.27-1.14-.5-1.55-1.52S51.59,10.82,52,10.63Z"/><path d="M66,16.74A3.63,3.63,0,0,0,69,16.65l1.89,0.77a1.74,1.74,0,0,0,2.26-1l0.49-1.2a1.74,1.74,0,0,0-1-2.26l-1.76-.71A3.66,3.66,0,1,0,66,16.74Zm-1.37-4.68c0.41-1,1.35-1.6,1.79-1.42s0.47,1.15.06,2.17S65.41,14.5,65,14.32,64.25,13.07,64.66,12.05Z"/></svg>