<svg id="Layer_1" data-name="Layer 1" xmlns="http://www.w3.org/2000/svg" viewBox="0 0 100 100"><title>wizard_icon</title><ellipse cx="64" cy="20" rx="20" ry="8"/><path d="M64,56c-1.37,0-2.71-.05-4-0.16v8c1.29,0.1,2.63.16,4,.16,11,0,20-3.58,20-8V48C84,52.42,75,56,64,56Z"/><path d="M64,68c-1.37,0-2.71-.05-4-0.16v8c1.29,0.11,2.63.16,4,.16,11,0,20-3.58,20-8V60C84,64.42,75,68,64,68Z"/><path d="M64,32c-11,0-20-3.58-20-8v8a3.31,3.31,0,0,0,.09.71c6.55,1.17,11.77,3.72,14.27,7A48.4,48.4,0,0,0,64,40c11,0,20-3.58,20-8V24C84,28.42,75,32,64,32Z"/><path d="M64,44c-1.37,0-2.72-.06-4-0.16,0,0.05,0,.11,0,0.16v7.84c1.29,0.1,2.63.16,4,.16,11,0,20-3.58,20-8V36C84,40.42,75,44,64,44Z"/><path d="M36,68c-11,0-20-3.58-20-8v8c0,4.42,9,8,20,8s20-3.58,20-8V60C56,64.42,47,68,36,68Z"/><path d="M36,80c-11,0-20-3.58-20-8v8c0,4.42,9,8,20,8s20-3.58,20-8V72C56,76.42,47,80,36,80Z"/><ellipse cx="36" cy="44" rx="20" ry="8"/><path d="M36,56c-11,0-20-3.58-20-8v8c0,4.42,9,8,20,8s20-3.58,20-8V48C56,52.42,47,56,36,56Z"/></svg>