<svg id="Layer_1" data-name="Layer 1" xmlns="http://www.w3.org/2000/svg" viewBox="0 0 100 100"><defs><style>.cls-1{fill:none;}</style></defs><title>wizard_icon</title><path class="cls-1" d="M71.1,70.6a1.78,1.78,0,0,1,1,.4A1.28,1.28,0,0,0,71.1,70.6Z"/><path class="cls-1" d="M72.1,66.8a1.69,1.69,0,0,0-1-.3,1.37,1.37,0,0,0-1.4,1.4s0,0,0,.05a1.36,1.36,0,0,1,1.4-1.35,1.78,1.78,0,0,1,1,.4,1.1,1.1,0,0,1,.39.91s0-.07,0-0.11A1.16,1.16,0,0,0,72.1,66.8Z"/><path class="cls-1" d="M70.1,81.6a1.84,1.84,0,0,1-.4-1.3A1.7,1.7,0,0,0,70.1,81.6Z"/><path class="cls-1" d="M71.1,70.6a1.28,1.28,0,0,0-1,.4,1.7,1.7,0,0,0-.4,1.3v8a1.84,1.84,0,0,0,.4,1.3,1.45,1.45,0,0,0,2,0,1.7,1.7,0,0,0,.4-1.3V72.2a1.59,1.59,0,0,0-.4-1.2A1.78,1.78,0,0,0,71.1,70.6Z"/><path class="cls-1" d="M72.1,67a1.78,1.78,0,0,0-1-.4A1.36,1.36,0,0,0,69.7,68a1.13,1.13,0,0,0,.4.95,1.28,1.28,0,0,0,1,.4,1.78,1.78,0,0,0,1-.4,1.07,1.07,0,0,0,.39-1A1.1,1.1,0,0,0,72.1,67Z"/><path d="M25.2,36.7a4.21,4.21,0,0,0,.5,1.7,4.3,4.3,0,0,0,2.9,2.2,23.6,23.6,0,0,0,1.2,3.8,16.35,16.35,0,0,0,5.1,7A10.36,10.36,0,0,0,42,54a14.67,14.67,0,0,0,6.5-1.6,13.74,13.74,0,0,0,3.4-2.7,18.46,18.46,0,0,0,4.4-9,3.84,3.84,0,0,0,1.7-.6,4.82,4.82,0,0,0,2.1-3.5,6.85,6.85,0,0,0-.4-2.1,3.6,3.6,0,0,0-1-1.5,3.48,3.48,0,0,0-1.5-.7h0.1L58.1,27C58.7,18.8,53,16.7,53,16.7a6.28,6.28,0,0,0-2.5-4.4c-4.6-2.7-14.2.9-14.2,0.9-7.4,1.8-9.1,6.9-9.1,6.9-2.3,5.3,0,11.9.2,12.5a3.28,3.28,0,0,0-.8.6A5.18,5.18,0,0,0,25.2,36.7Z"/><path d="M63.7,60.7A40.69,40.69,0,0,0,60,58.6c-0.1,0-.1-0.1-0.2-0.1-0.3-.1-0.6-0.3-0.9-0.4a35.22,35.22,0,0,0-8.1-2.3,15.22,15.22,0,0,1-2.1,1.5,14.67,14.67,0,0,1-6.5,1.6,10.36,10.36,0,0,1-7.1-2.6L34.8,56a63.27,63.27,0,0,0-7.6,1.9V57.8a11,11,0,0,0-1.7.7c-3,1.4-9,5-11,12.1V81.4s18.2,11.8,45.3,4.3A16,16,0,0,1,63.7,60.7Z"/><path d="M71.5,60.7a14,14,0,1,0,14,14A14,14,0,0,0,71.5,60.7Zm1,19.6a1.7,1.7,0,0,1-.4,1.3,1.45,1.45,0,0,1-2,0,1.7,1.7,0,0,1-.4-1.3v-8a1.7,1.7,0,0,1,.4-1.3,1.45,1.45,0,0,1,2,0,1.59,1.59,0,0,1,.4,1.2v8.1Zm0-12.3a1.16,1.16,0,0,1-.4,1,1.28,1.28,0,0,1-1,.4,1.78,1.78,0,0,1-1-.4,1.16,1.16,0,0,1-.4-1s0,0,0,0,0,0,0-.05a1.37,1.37,0,0,1,1.4-1.4,1.69,1.69,0,0,1,1,.3,1.16,1.16,0,0,1,.4,1s0,0.07,0,.11S72.5,68,72.5,68Z"/><path d="M72.1,68.9a1.78,1.78,0,0,1-1,.4,1.28,1.28,0,0,1-1-.4A1.13,1.13,0,0,1,69.7,68s0,0,0,0a1.16,1.16,0,0,0,.4,1,1.78,1.78,0,0,0,1,.4,1.28,1.28,0,0,0,1-.4,1.16,1.16,0,0,0,.4-1s0-.06,0-0.09A1.07,1.07,0,0,1,72.1,68.9Z"/></svg>