<?xml version="1.0" encoding="utf-8"?>
<!-- Generator: Adobe Illustrator 19.2.0, SVG Export Plug-In . SVG Version: 6.00 Build 0)  -->
<svg version="1.1" id="Layer_1" xmlns="http://www.w3.org/2000/svg" xmlns:xlink="http://www.w3.org/1999/xlink" x="0px" y="0px"
	 viewBox="0 0 141.7 141.7" style="enable-background:new 0 0 141.7 141.7;" xml:space="preserve">
<style type="text/css">
	.st0{fill:none;}
</style>
<g>
	<g>
		<g>
			<g>
				<path d="M73.8,75l-6-9l6-9l-6-9.1c-3.2-3.9-8.3-6.2-13.9-6.2c-6.4,0-12,3-15,8c-3,5.2-3,10.7,0,16.7c2.9,6,8.2,11.3,11.9,14.8
					l0.1,0.1c4.2,4.2,14.5,12.9,19.4,17l3.5-5.2l-6-9L73.8,75z M74.4,103c-0.8,0.7-1.4,1.2-1.9,1.5l-1.7,1.4l-1-0.8l-0.7-0.6
					c-2.8-2.2-16.9-14.1-22.1-19.3c-4-3.8-9.7-9.6-13.1-16.3c-3.8-7.8-3.8-15.2,0.2-22l0,0c4-6.8,11.4-10.8,19.9-10.8
					c6.5,0,12.6,2.5,16.8,6.7c0.4-0.4,0.8-0.8,1.2-1.2c1.3-1.2,2.7-2.2,4.3-3c3.3-1.8,7.2-2.8,11.2-2.8c8.5,0,16,4.1,20.1,11
					c4,6.9,4,14.2,0.2,21.8c-3.2,6.3-8.4,11.8-13,16.5C90.4,89.6,79.4,99,74.4,103z"/>
			</g>
		</g>
	</g>
</g>
</svg>
