<?xml version="1.0" encoding="utf-8"?>
<!-- Generator: Adobe Illustrator 19.2.0, SVG Export Plug-In . SVG Version: 6.00 Build 0)  -->
<svg version="1.1" id="Layer_1" xmlns="http://www.w3.org/2000/svg" xmlns:xlink="http://www.w3.org/1999/xlink" x="0px" y="0px"
	 viewBox="0 0 64 64" style="enable-background:new 0 0 64 64;" xml:space="preserve">
<style type="text/css">
	.st0{fill:none;enable-background:new    ;}
	.st1{fill:none;}
	.st2{fill:#FFFFFF;}
</style>
<g id="Ellipse_1_copy_3_2_">
	<path d="M32,61C16,61,3,48,3,32C3,16,16,3,32,3c16,0,29,13,29,29C61,48,48,61,32,61z M32,5C17.1,5,5,17.1,5,32s12.1,27,27,27
		s27-12.1,27-27S46.9,5,32,5z"/>
</g>
<g>
	<path class="st1" d="M43.9,39.4c-0.2,0-0.3,0-0.5,0.2c-0.1,0.1-0.2,0.3-0.2,0.6V44c0,0.3,0,0.5,0.2,0.6c0.1,0.1,0.3,0.2,0.5,0.2
		c0.2,0,0.3,0,0.5-0.2s0.2-0.3,0.2-0.6v-3.8c0-0.2,0-0.4-0.2-0.6C44.2,39.5,44.1,39.4,43.9,39.4z"/>
	<path class="st1" d="M43.9,37.5c-0.2,0-0.3,0-0.5,0.2c-0.1,0.1-0.2,0.3-0.2,0.5s0,0.4,0.2,0.5c0.1,0.1,0.3,0.2,0.5,0.2
		c0.2,0,0.3-0.1,0.5-0.2c0.1-0.1,0.2-0.2,0.2-0.5c0-0.2,0-0.4-0.2-0.5C44.2,37.5,44.1,37.5,43.9,37.5z"/>
	<g>
		<path d="M43.9,37.5c-0.2,0-0.3,0-0.5,0.2c-0.1,0.1-0.2,0.3-0.2,0.5s0,0.4,0.2,0.5c0.1,0.1,0.3,0.2,0.5,0.2c0.2,0,0.3-0.1,0.5-0.2
			c0.1-0.1,0.2-0.2,0.2-0.5c0-0.2,0-0.4-0.2-0.5C44.2,37.5,44.1,37.5,43.9,37.5z"/>
		<path d="M43.9,39.4c-0.2,0-0.3,0-0.5,0.2c-0.1,0.1-0.2,0.3-0.2,0.6V44c0,0.3,0,0.5,0.2,0.6c0.1,0.1,0.3,0.2,0.5,0.2
			c0.2,0,0.3,0,0.5-0.2s0.2-0.3,0.2-0.6v-3.8c0-0.2,0-0.4-0.2-0.6C44.2,39.5,44.1,39.4,43.9,39.4z"/>
		<path d="M32,7C18.2,7,7,18.2,7,32s11.2,25,25,25s25-11.2,25-25S45.8,7,32,7z M22.5,15.8c0,0,0.8-2.4,4.3-3.2c0,0,4.5-1.7,6.6-0.4
			c0,0,1.1,0.8,1.2,2.1c0,0,2.7,1,2.4,4.8l-0.4,2.5h0c0.3,0,0.5,0.2,0.7,0.3c0.2,0.2,0.4,0.5,0.5,0.7c0.2,0.5,0.2,1,0.2,1
			c-0.1,0.9-0.6,1.4-1,1.6c-0.3,0.2-0.6,0.3-0.8,0.3c-0.4,2-1.3,3.3-2.1,4.2c-0.8,0.9-1.6,1.3-1.6,1.3c-1.2,0.6-2.2,0.7-3,0.7
			c-2.1,0-3.2-1.1-3.3-1.2c-1.2-0.9-2-2.2-2.4-3.3c-0.3-0.8-0.5-1.5-0.6-1.8c-0.7-0.2-1.2-0.6-1.4-1c-0.2-0.4-0.2-0.8-0.2-0.8
			c0-0.8,0.4-1.3,0.7-1.6c0.1-0.1,0.3-0.2,0.4-0.3C22.5,21.4,21.4,18.3,22.5,15.8z M16.5,44.5v-5.1c0.9-3.3,3.7-5,5.1-5.7
			c0.5-0.2,0.8-0.3,0.8-0.3v0c0.7-0.2,2-0.6,3.6-0.9c0,0,0.1,0.1,0.1,0.1c0.1,0.1,1.3,1.2,3.3,1.2c0.9,0,1.9-0.2,3-0.7
			c0,0,0.4-0.2,1-0.7c1.3,0.2,2.5,0.6,3.8,1.1c0.1,0,0.3,0.1,0.4,0.2c0,0,0,0,0.1,0c0.7,0.3,1.2,0.7,1.7,1c-2.3,1.3-3.8,3.7-3.9,6.5
			c0,2,0.8,3.8,2.1,5.1C25,50,16.5,44.5,16.5,44.5z M44.1,47.9c-3.6,0-6.5-2.9-6.5-6.5c0-3.6,2.9-6.5,6.5-6.5c3.6,0,6.5,2.9,6.5,6.5
			C50.6,44.9,47.7,47.9,44.1,47.9z"/>
	</g>
</g>
</svg>
