<?xml version="1.0" encoding="utf-8"?>
<!-- Generator: Adobe Illustrator 19.2.0, SVG Export Plug-In . SVG Version: 6.00 Build 0)  -->
<svg version="1.1" id="Layer_1" xmlns="http://www.w3.org/2000/svg" xmlns:xlink="http://www.w3.org/1999/xlink" x="0px" y="0px"
	 viewBox="0 0 64 64" style="enable-background:new 0 0 64 64;" xml:space="preserve">
<style type="text/css">
	.st0{fill:none;enable-background:new    ;}
	.st1{fill:none;}
	.st2{fill:#FFFFFF;}
</style>
<g id="Ellipse_1_copy_3_1_">
	<path d="M32,61C16,61,3,48,3,32C3,16,16,3,32,3c16,0,29,13,29,29C61,48,48,61,32,61z M32,5C17.1,5,5,17.1,5,32s12.1,27,27,27
		s27-12.1,27-27S46.9,5,32,5z"/>
</g>
<g>
	<g>
		<path class="st1" d="M25.1,39.1c0.1,0,0.2,0,0.3,0c0.1,0,0.3,0,0.4,0c1.8,0,3.5-0.2,5-0.4c2.6-0.5,4.6-1.2,5.5-2.2
			c0.3-0.3,0.5-0.7,0.5-1c0,0,0,0,0,0l0,0v-1.2c6.2,0,11.1-1.7,11.1-3.6c0,0,0,0,0,0l0,0v-2.4c0,0.4-0.2,0.8-0.7,1.1l0,0
			c0,0,0,0,0,0c-1.6,1.3-5.8,2.2-10.7,2.2c-0.4,0-0.7,0-1.1,0c-1.8-1-5.1-1.6-9-1.7c-0.2-0.1-0.5-0.3-0.6-0.4c0,0,0,0,0,0l0,0
			c-0.4-0.4-0.7-0.7-0.7-1.1v1.1v0.2v0.2C19,29.9,14,31.4,14,33.2v1.1v0.2v1.1C14,37.5,19,39.1,25.1,39.1z"/>
		<path class="st1" d="M47.2,39.2L47.2,39.2C47.2,39.2,47.2,39.2,47.2,39.2c-1.6,1.3-5.8,2.2-10.7,2.2c0,0-0.1,0-0.1,0
			c0,0.2-0.1,0.3-0.1,0.4c0.1,0.6,0.1,1.2,0,1.7c0,0-0.1,0.1-0.1,0.1c-0.1,0.1-0.3,0.2-0.5,0.4c-1.8,1.1-5.7,1.9-10.3,1.9
			c-5.1,0-9.4-1-10.8-2.3c-0.4-0.3-0.6-0.7-0.6-1c0,0,0,0,0,0l-0.1-0.1v1.1v0.2v1.1l0,0c0,0,0,0,0,0c0,2,5.1,3.6,11.4,3.6
			c6.3,0,11.4-1.6,11.4-3.6v0V44c6.2,0,11.1-1.7,11.1-3.6v0V38C47.9,38.4,47.7,38.8,47.2,39.2z"/>
		<path class="st1" d="M36.5,24.9c6.3,0,11.4-1.6,11.4-3.6v-2.4c0-1.8-5.1-3.3-11.4-3.3S25.1,17,25.1,18.9V20v0.2v1.1
			C25.1,23.2,30.2,24.9,36.5,24.9z"/>
		<path class="st1" d="M47.4,34.4L47.4,34.4L47.4,34.4C47.4,34.4,47.4,34.4,47.4,34.4c-1.6,1.3-5.8,2.2-10.7,2.2h0
			c0.1,0.6,0.1,1.2,0.1,1.8c-0.1,0.2-0.3,0.4-0.5,0.6v0l0,0c0,0,0,0,0,0c-0.1,0.1-0.3,0.2-0.4,0.3c-1.2,0.7-3.1,1.3-5.6,1.6
			c-1.4,0.2-3,0.3-4.7,0.3c-0.1,0-0.1,0-0.2,0c-4.8,0-8.9-0.9-10.5-2.2c0,0,0,0,0,0l0,0c-0.4-0.3-0.7-0.7-0.7-1.1v1.1v0.2v1.1l0,0
			c0,0,0,0,0,0c0,2,5.1,3.6,11.4,3.6c1.7,0,3.3-0.1,4.8-0.3c2.8-0.4,5-1.2,6-2.1c0.4-0.4,0.6-0.8,0.6-1.2c0,0,0,0,0,0l0,0v-0.9
			c6.2,0,11.1-1.7,11.1-3.6v-2.4C48.1,33.6,47.8,34,47.4,34.4z"/>
		<path class="st1" d="M47.4,24.6L47.4,24.6L47.4,24.6C47.4,24.6,47.4,24.6,47.4,24.6c-1.6,1.3-5.8,2.2-10.7,2.2s-9.1-0.9-10.7-2.2
			c0,0,0,0,0,0l0,0c-0.4-0.4-0.7-0.7-0.7-1.1v1.1v0.2v1.1c0,0,0,0,0,0c0,2,5.1,3.6,11.4,3.6s11.4-1.6,11.4-3.6c0,0,0,0,0,0l0,0v-2.4
			C48.1,23.9,47.8,24.3,47.4,24.6z"/>
		<path d="M32,7C18.2,7,7,18.2,7,32s11.2,25,25,25s25-11.2,25-25S45.8,7,32,7z M25.1,20.2V20v-1.1c0-1.8,5.1-3.3,11.4-3.3
			s11.4,1.5,11.4,3.3v2.4c0,2-5.1,3.6-11.4,3.6s-11.4-1.6-11.4-3.6V20.2z M14,34.4v-0.2v-1.1c0-1.8,5-3.3,11.1-3.3v-0.2v-0.2v-1.1
			c0,0.4,0.2,0.8,0.7,1.1l0,0c0,0,0,0,0,0c0.2,0.1,0.4,0.3,0.6,0.4c3.9,0.1,7.3,0.8,9,1.7c0.4,0,0.7,0,1.1,0c4.9,0,9.1-0.9,10.7-2.2
			c0,0,0,0,0,0l0,0c0.4-0.3,0.7-0.7,0.7-1.1v2.4l0,0c0,0,0,0,0,0c0,2-5,3.6-11.1,3.6v1.2l0,0c0,0,0,0,0,0c0,0.4-0.2,0.7-0.5,1
			c-0.9,0.9-2.9,1.7-5.5,2.2c-1.5,0.3-3.2,0.4-5,0.4c-0.1,0-0.3,0-0.4,0c-0.1,0-0.2,0-0.3,0C19,39.1,14,37.5,14,35.5V34.4z
			 M47.9,40.4L47.9,40.4c0,2-5,3.6-11.1,3.6v0.8v0c0,2-5.1,3.6-11.4,3.6c-6.3,0-11.4-1.6-11.4-3.6c0,0,0,0,0,0l0,0v-1.1v-0.2v-1.1
			l0.1,0.1c0,0,0,0,0,0c0,0.4,0.2,0.7,0.6,1c1.5,1.3,5.8,2.3,10.8,2.3c4.5,0,8.5-0.8,10.3-1.9c0.2-0.1,0.4-0.2,0.5-0.4
			c0,0,0.1-0.1,0.1-0.1c0.1-0.6,0.1-1.2,0-1.7c0-0.1,0.1-0.3,0.1-0.4c0,0,0.1,0,0.1,0c4.9,0,9.1-0.9,10.7-2.2c0,0,0,0,0,0l0,0
			c0.4-0.3,0.7-0.7,0.7-1.1V40.4z M48.1,35.6c0,2-5,3.6-11.1,3.6v0.9l0,0c0,0,0,0,0,0c0,0.4-0.2,0.8-0.6,1.2c-1,0.9-3.2,1.7-6,2.1
			c-1.5,0.2-3.1,0.3-4.8,0.3c-6.3,0-11.4-1.6-11.4-3.6c0,0,0,0,0,0l0,0v-1.1v-0.2v-1.1c0,0.4,0.2,0.8,0.7,1.1l0,0c0,0,0,0,0,0
			c1.6,1.3,5.7,2.2,10.5,2.2c0.1,0,0.1,0,0.2,0c1.7,0,3.3-0.1,4.7-0.3c2.4-0.3,4.4-0.9,5.6-1.6c0.2-0.1,0.3-0.2,0.4-0.3c0,0,0,0,0,0
			l0,0v0c0.2-0.2,0.4-0.4,0.5-0.6c0-0.6,0-1.2-0.1-1.8h0c4.9,0,9.1-0.9,10.7-2.2c0,0,0,0,0,0l0,0l0,0c0.4-0.3,0.7-0.7,0.7-1.1V35.6z
			 M48.1,25.9L48.1,25.9C48.1,25.9,48.1,25.9,48.1,25.9c0,2-5.1,3.6-11.4,3.6s-11.4-1.6-11.4-3.6c0,0,0,0,0,0v-1.1v-0.2v-1.1
			c0,0.4,0.2,0.8,0.7,1.1l0,0c0,0,0,0,0,0c1.6,1.3,5.8,2.2,10.7,2.2s9.1-0.9,10.7-2.2c0,0,0,0,0,0l0,0l0,0c0.4-0.3,0.7-0.7,0.7-1.1
			V25.9z"/>
	</g>
	<path class="st2" d="M36.3,43.5c0.1-0.1,0.1-0.1,0.2-0.2C36.4,43.4,36.4,43.5,36.3,43.5z M36.5,43.3c0.1-0.1,0.1-0.1,0.1-0.2
		C36.6,43.2,36.6,43.2,36.5,43.3z M36.7,43c0-0.1,0-0.1,0.1-0.2C36.7,42.9,36.7,43,36.7,43z"/>
	<path class="st2" d="M36.8,38.3c0-0.1,0.1-0.2,0.1-0.2C36.9,38.1,36.8,38.2,36.8,38.3z"/>
</g>
</svg>
